<?xml version="1.0" encoding="utf-8" ?>
<svg baseProfile="full" height="100%" version="1.1" width="100%" xmlns="http://www.w3.org/2000/svg" xmlns:ev="http://www.w3.org/2001/xml-events" xmlns:xlink="http://www.w3.org/1999/xlink"><defs /><rect fill="black" height="23.019027248633837" rx="5" ry="5" width="8.100000000000001" x="0.0" y="88.49048637568308" /><rect fill="black" height="21.823481489608337" rx="5" ry="5" width="8.100000000000001" x="10.8" y="89.08825925519584" /><rect fill="black" height="22.31423564575196" rx="5" ry="5" width="8.100000000000001" x="21.6" y="88.84288217712403" /><rect fill="black" height="21.937070001289193" rx="5" ry="5" width="8.100000000000001" x="32.400000000000006" y="89.0314649993554" /><rect fill="black" height="21.933258023837844" rx="5" ry="5" width="8.100000000000001" x="43.2" y="89.03337098808107" /><rect fill="black" height="22.5460081083514" rx="5" ry="5" width="8.100000000000001" x="54.0" y="88.7269959458243" /><rect fill="black" height="18.79453184877801" rx="5" ry="5" width="8.100000000000001" x="64.80000000000001" y="90.602734075611" /><rect fill="black" height="183.11175775667195" rx="5" ry="5" width="8.100000000000001" x="75.60000000000001" y="8.444121121664026" /><rect fill="black" height="184.26565618772688" rx="5" ry="5" width="8.100000000000001" x="86.4" y="7.867171906136562" /><rect fill="black" height="200.0" rx="5" ry="5" width="8.100000000000001" x="97.2" y="0.0" /><rect fill="black" height="191.0190543057032" rx="5" ry="5" width="8.100000000000001" x="108.0" y="4.490472847148396" /><rect fill="black" height="185.76647153403383" rx="5" ry="5" width="8.100000000000001" x="118.80000000000001" y="7.116764232983087" /><rect fill="black" height="188.56811025801002" rx="5" ry="5" width="8.100000000000001" x="129.60000000000002" y="5.7159448709949885" /><rect fill="black" height="185.47491272736804" rx="5" ry="5" width="8.100000000000001" x="140.4" y="7.262543636315982" /><rect fill="black" height="190.46200775613832" rx="5" ry="5" width="8.100000000000001" x="151.20000000000002" y="4.76899612193084" /><rect fill="black" height="185.70612261257278" rx="5" ry="5" width="8.100000000000001" x="162.0" y="7.146938693713608" /><rect fill="black" height="184.57452516844964" rx="5" ry="5" width="8.100000000000001" x="172.8" y="7.71273741577518" /><rect fill="black" height="191.73048603266346" rx="5" ry="5" width="8.100000000000001" x="183.60000000000002" y="4.134756983668268" /><rect fill="black" height="196.1412913275381" rx="5" ry="5" width="8.100000000000001" x="194.4" y="1.9293543362309435" /><rect fill="black" height="192.0151433438448" rx="5" ry="5" width="8.100000000000001" x="205.20000000000002" y="3.992428328077594" /><rect fill="black" height="186.04321550058765" rx="5" ry="5" width="8.100000000000001" x="216.0" y="6.978392249706175" /><rect fill="black" height="56.473361564009004" rx="5" ry="5" width="8.100000000000001" x="226.8" y="71.7633192179955" /><rect fill="black" height="47.942892297101544" rx="5" ry="5" width="8.100000000000001" x="237.60000000000002" y="76.02855385144923" /><rect fill="black" height="38.702747903213144" rx="5" ry="5" width="8.100000000000001" x="248.4" y="80.64862604839342" /><rect fill="black" height="37.51207910772306" rx="5" ry="5" width="8.100000000000001" x="259.20000000000005" y="81.24396044613847" /><rect fill="black" height="37.72019000948023" rx="5" ry="5" width="8.100000000000001" x="270.0" y="81.13990499525988" /><rect fill="black" height="33.80236837500459" rx="5" ry="5" width="8.100000000000001" x="280.8" y="83.0988158124977" /><rect fill="black" height="33.336179180191955" rx="5" ry="5" width="8.100000000000001" x="291.6" y="83.33191040990403" /><rect fill="black" height="120.62322607954363" rx="5" ry="5" width="8.100000000000001" x="302.40000000000003" y="39.688386960228186" /><rect fill="black" height="183.33101523730454" rx="5" ry="5" width="8.100000000000001" x="313.20000000000005" y="8.33449238134773" /><rect fill="black" height="181.01658988614903" rx="5" ry="5" width="8.100000000000001" x="324.0" y="9.491705056925483" /><rect fill="black" height="192.43214610815718" rx="5" ry="5" width="8.100000000000001" x="334.8" y="3.783926945921408" /><rect fill="black" height="187.23624653394683" rx="5" ry="5" width="8.100000000000001" x="345.6" y="6.381876733026587" /><rect fill="black" height="182.95434576718336" rx="5" ry="5" width="8.100000000000001" x="356.40000000000003" y="8.522827116408322" /><rect fill="black" height="186.34519371470353" rx="5" ry="5" width="8.100000000000001" x="367.20000000000005" y="6.827403142648237" /><rect fill="black" height="194.28002581929036" rx="5" ry="5" width="8.100000000000001" x="378.0" y="2.859987090354821" /><rect fill="black" height="187.96148030947458" rx="5" ry="5" width="8.100000000000001" x="388.8" y="6.0192598452627095" /><rect fill="black" height="189.2786011783949" rx="5" ry="5" width="8.100000000000001" x="399.6" y="5.360699410802553" /><rect fill="black" height="196.21437865259225" rx="5" ry="5" width="8.100000000000001" x="410.40000000000003" y="1.8928106737038775" /><rect fill="black" height="186.0708983607326" rx="5" ry="5" width="8.100000000000001" x="421.20000000000005" y="6.9645508196337005" /><rect fill="black" height="187.63022045122412" rx="5" ry="5" width="8.100000000000001" x="432.0" y="6.1848897743879405" /><rect fill="black" height="189.91507545719818" rx="5" ry="5" width="8.100000000000001" x="442.8" y="5.0424622714009075" /><rect fill="black" height="184.98472520819442" rx="5" ry="5" width="8.100000000000001" x="453.6" y="7.5076373959027904" /><rect fill="black" height="189.31303728703347" rx="5" ry="5" width="8.100000000000001" x="464.40000000000003" y="5.343481356483267" /><rect fill="black" height="188.65181975180192" rx="5" ry="5" width="8.100000000000001" x="475.20000000000005" y="5.674090124099038" /><rect fill="black" height="190.89128120297542" rx="5" ry="5" width="8.100000000000001" x="486.00000000000006" y="4.55435939851229" /><rect fill="black" height="184.93718696526525" rx="5" ry="5" width="8.100000000000001" x="496.8" y="7.5314065173673725" /><rect fill="black" height="186.40184925630587" rx="5" ry="5" width="8.100000000000001" x="507.6" y="6.799075371847067" /><rect fill="black" height="184.0750855509552" rx="5" ry="5" width="8.100000000000001" x="518.4000000000001" y="7.962457224522396" /><rect fill="black" height="184.40299712949354" rx="5" ry="5" width="8.100000000000001" x="529.2" y="7.798501435253229" /><rect fill="black" height="180.79399238993972" rx="5" ry="5" width="8.100000000000001" x="540.0" y="9.603003805030141" /><rect fill="black" height="184.38862492807388" rx="5" ry="5" width="8.100000000000001" x="550.8000000000001" y="7.8056875359630595" /><rect fill="black" height="192.71991830971723" rx="5" ry="5" width="8.100000000000001" x="561.6" y="3.6400408451413853" /><rect fill="black" height="186.62687981547478" rx="5" ry="5" width="8.100000000000001" x="572.4000000000001" y="6.68656009226261" /><rect fill="black" height="189.89087473401162" rx="5" ry="5" width="8.100000000000001" x="583.2" y="5.054562632994191" /><rect fill="black" height="188.29041033396587" rx="5" ry="5" width="8.100000000000001" x="594.0" y="5.854794833017067" /><rect fill="black" height="36.427095048285224" rx="5" ry="5" width="8.100000000000001" x="604.8000000000001" y="81.78645247585739" /><rect fill="black" height="36.276337717604456" rx="5" ry="5" width="8.100000000000001" x="615.6" y="81.86183114119777" /><rect fill="black" height="43.51599963024373" rx="5" ry="5" width="8.100000000000001" x="626.4000000000001" y="78.24200018487814" /><rect fill="black" height="67.71201827650957" rx="5" ry="5" width="8.100000000000001" x="637.2" y="66.14399086174521" /><rect fill="black" height="78.9686987059182" rx="5" ry="5" width="8.100000000000001" x="648.0" y="60.5156506470409" /><rect fill="black" height="60.34175076497051" rx="5" ry="5" width="8.100000000000001" x="658.8000000000001" y="69.82912461751474" /><rect fill="black" height="39.96140824186409" rx="5" ry="5" width="8.100000000000001" x="669.6" y="80.01929587906795" /><rect fill="black" height="104.22747385950753" rx="5" ry="5" width="8.100000000000001" x="680.4000000000001" y="47.88626307024624" /><rect fill="black" height="182.50612943584898" rx="5" ry="5" width="8.100000000000001" x="691.2" y="8.746935282075512" /><rect fill="black" height="181.4553156191139" rx="5" ry="5" width="8.100000000000001" x="702.0" y="9.272342190443055" /><rect fill="black" height="180.1055009967745" rx="5" ry="5" width="8.100000000000001" x="712.8000000000001" y="9.947249501612745" /><rect fill="black" height="179.07343998942184" rx="5" ry="5" width="8.100000000000001" x="723.6" y="10.463280005289079" /><rect fill="black" height="182.8103239243543" rx="5" ry="5" width="8.100000000000001" x="734.4000000000001" y="8.594838037822853" /><rect fill="black" height="180.6860477390636" rx="5" ry="5" width="8.100000000000001" x="745.2" y="9.656976130468195" /><rect fill="black" height="110.13899283007562" rx="5" ry="5" width="8.100000000000001" x="756.0" y="44.93050358496219" /><rect fill="black" height="85.2175119846791" rx="5" ry="5" width="8.100000000000001" x="766.8000000000001" y="57.39124400766045" /><rect fill="black" height="176.71291199889828" rx="5" ry="5" width="8.100000000000001" x="777.6" y="11.643544000550861" /><rect fill="black" height="178.82111947900293" rx="5" ry="5" width="8.100000000000001" x="788.4000000000001" y="10.589440260498534" /><rect fill="black" height="185.58460930246267" rx="5" ry="5" width="8.100000000000001" x="799.2" y="7.207695348768667" /><rect fill="black" height="186.19114240113024" rx="5" ry="5" width="8.100000000000001" x="810.0" y="6.904428799434882" /><rect fill="black" height="189.84155067665947" rx="5" ry="5" width="8.100000000000001" x="820.8000000000001" y="5.079224661670267" /><rect fill="black" height="187.56806237278212" rx="5" ry="5" width="8.100000000000001" x="831.6" y="6.215968813608939" /><rect fill="black" height="183.8376509594622" rx="5" ry="5" width="8.100000000000001" x="842.4000000000001" y="8.081174520268902" /><rect fill="black" height="183.607091621199" rx="5" ry="5" width="8.100000000000001" x="853.2" y="8.196454189400498" /><rect fill="black" height="181.58829378605205" rx="5" ry="5" width="8.100000000000001" x="864.0" y="9.205853106973976" /><rect fill="black" height="187.3511762278169" rx="5" ry="5" width="8.100000000000001" x="874.8000000000001" y="6.3244118860915535" /><rect fill="black" height="184.42344894363072" rx="5" ry="5" width="8.100000000000001" x="885.6" y="7.788275528184641" /><rect fill="black" height="188.63816141944926" rx="5" ry="5" width="8.100000000000001" x="896.4000000000001" y="5.680919290275369" /><rect fill="black" height="119.87069499478568" rx="5" ry="5" width="8.100000000000001" x="907.2" y="40.06465250260716" /><rect fill="black" height="104.51290071393137" rx="5" ry="5" width="8.100000000000001" x="918.0000000000001" y="47.743549643034314" /><rect fill="black" height="104.34410516785933" rx="5" ry="5" width="8.100000000000001" x="928.8000000000001" y="47.82794741607034" /><rect fill="black" height="119.3384494418584" rx="5" ry="5" width="8.100000000000001" x="939.6" y="40.3307752790708" /><rect fill="black" height="183.15658333339283" rx="5" ry="5" width="8.100000000000001" x="950.4000000000001" y="8.421708333303584" /><rect fill="black" height="180.9147322422169" rx="5" ry="5" width="8.100000000000001" x="961.2" y="9.54263387889155" /><rect fill="black" height="182.75128987033546" rx="5" ry="5" width="8.100000000000001" x="972.0000000000001" y="8.624355064832272" /><rect fill="black" height="165.85119442830657" rx="5" ry="5" width="8.100000000000001" x="982.8000000000001" y="17.074402785846715" /><rect fill="black" height="157.68889402583036" rx="5" ry="5" width="8.100000000000001" x="993.6" y="21.155552987084818" /><rect fill="black" height="156.81271005354898" rx="5" ry="5" width="8.100000000000001" x="1004.4000000000001" y="21.59364497322551" /><rect fill="black" height="157.95414286997243" rx="5" ry="5" width="8.100000000000001" x="1015.2" y="21.022928565013785" /><rect fill="black" height="155.999771328473" rx="5" ry="5" width="8.100000000000001" x="1026.0" y="22.0001143357635" /><rect fill="black" height="155.4911349606174" rx="5" ry="5" width="8.100000000000001" x="1036.8000000000002" y="22.254432519691306" /><rect fill="black" height="154.76722949987501" rx="5" ry="5" width="8.100000000000001" x="1047.6000000000001" y="22.616385250062493" /><rect fill="black" height="154.11901289952124" rx="5" ry="5" width="8.100000000000001" x="1058.4" y="22.94049355023938" /><rect fill="black" height="153.12858787507602" rx="5" ry="5" width="8.100000000000001" x="1069.2" y="23.43570606246199" /></svg>